<svg width="22" height="16" viewBox="0 0 22 16" fill="none" xmlns="http://www.w3.org/2000/svg">
<path d="M0.333374 8C0.333374 7.26362 0.930328 6.66667 1.66671 6.66667H15C15.7364 6.66667 16.3334 7.26362 16.3334 8C16.3334 8.73638 15.7364 9.33333 15 9.33333H1.66671C0.930327 9.33333 0.333374 8.73638 0.333374 8ZM0.333374 1.33333C0.333374 0.596954 0.930328 0 1.66671 0H20.3334C21.0697 0 21.6667 0.596954 21.6667 1.33333C21.6667 2.06971 21.0698 2.66667 20.3334 2.66667H1.66671C0.93033 2.66667 0.333374 2.06971 0.333374 1.33333ZM0.333374 14.6667C0.333374 15.403 0.930328 16 1.66671 16H8.64671C9.38309 16 9.98004 15.403 9.98004 14.6667C9.98004 13.9303 9.38309 13.3333 8.64671 13.3333H1.66671C0.930327 13.3333 0.333374 13.9303 0.333374 14.6667Z" fill="white"/>
</svg>
